name rise36.2859peak64.2979fall75.1499.mot
datacolumns 19
datarows 26
range 4.27332100000000 4.31498900000000
endheader
time	ground_force1_vx	ground_force1_vy	ground_force1_vz	ground_force1_px	ground_force1_py	ground_force1_pz	ground_force2_vx	ground_force2_vy	ground_force2_vz	ground_force2_px	ground_force2_py	ground_force2_pz	ground_torque1_x	ground_torque1_y	ground_torque1_z	ground_torque2_x	ground_torque2_y	ground_torque2_z	
4.27332100000000	-4.57611400000000	42.60334100000000	-11.87714200000000	0.42085500000000	0.00000000000000	0.05558800000000	-44.37805300000000	761.49633100000005	-51.07066700000000	0.21436400000000	0.00000000000000	-0.11817600000000	0.00000000000000	-11.15051500000000	0.00000000000000	0.00000000000000	-30.34655200000000	0.00000000000000	
4.27498200000000	-4.93672700000000	49.81620600000000	-13.30933800000000	0.42022700000000	0.00000000000000	0.05710300000000	-45.03199400000000	758.80103699999995	-50.58393500000000	0.21335300000000	0.00000000000000	-0.11800500000000	0.00000000000000	-12.50184100000000	0.00000000000000	0.00000000000000	-30.21343000000000	0.00000000000000	
4.27665400000000	-5.18655400000000	57.09128900000000	-14.59620500000000	0.41982800000000	0.00000000000000	0.05847900000000	-45.70861400000000	756.02999000000000	-50.07911900000000	0.21232200000000	0.00000000000000	-0.11783000000000	0.00000000000000	-13.72542300000000	0.00000000000000	0.00000000000000	-30.08051300000000	0.00000000000000	
4.27831900000000	-5.31208100000000	64.33346700000000	-15.70719000000000	0.41962800000000	0.00000000000000	0.05973600000000	-46.40698900000000	753.18125699999996	-49.55597500000000	0.21127200000000	0.00000000000000	-0.11765200000000	0.00000000000000	-14.79413400000000	0.00000000000000	0.00000000000000	-29.94761900000000	0.00000000000000	
4.27998200000000	-5.30544200000000	71.47192500000000	-16.62277500000000	0.41960000000000	0.00000000000000	0.06088900000000	-47.12609300000000	750.25278900000001	-49.01428700000000	0.21020300000000	0.00000000000000	-0.11747100000000	0.00000000000000	-15.69078000000000	0.00000000000000	0.00000000000000	-29.81455600000000	0.00000000000000	
4.28165400000000	-5.16428500000000	78.46223500000001	-17.33453600000000	0.41972400000000	0.00000000000000	0.06195200000000	-47.86480100000000	747.24242100000004	-48.45387100000000	0.20911800000000	0.00000000000000	-0.11728700000000	0.00000000000000	-16.40814300000000	0.00000000000000	0.00000000000000	-29.68112200000000	0.00000000000000	
4.28332100000000	-4.89121700000000	85.28591000000000	-17.84428200000000	0.41998400000000	0.00000000000000	0.06293600000000	-48.62188400000000	744.14788099999998	-47.87457700000000	0.20801600000000	0.00000000000000	-0.11709900000000	0.00000000000000	-16.94820200000000	0.00000000000000	0.00000000000000	-29.54710400000000	0.00000000000000	
4.28498400000000	-4.49294200000000	91.94789900000001	-18.16249500000000	0.42036300000000	0.00000000000000	0.06384900000000	-49.39601700000000	740.96679500000005	-47.27628800000000	0.20690000000000	0.00000000000000	-0.11690800000000	0.00000000000000	-17.32073500000000	0.00000000000000	0.00000000000000	-29.41227800000000	0.00000000000000	
4.28664700000000	-3.97921300000000	98.47257600000000	-18.30633700000000	0.42084900000000	0.00000000000000	0.06469900000000	-50.18577600000000	737.69669199999998	-46.65893100000000	0.20577000000000	0.00000000000000	-0.11671300000000	0.00000000000000	-17.54151800000000	0.00000000000000	0.00000000000000	-29.27641300000000	0.00000000000000	
4.28831400000000	-3.36172200000000	104.89882299999999	-18.29743800000000	0.42143200000000	0.00000000000000	0.06549300000000	-50.98964500000000	734.33501500000000	-46.02247000000000	0.20462700000000	0.00000000000000	-0.11651500000000	0.00000000000000	-17.63034100000000	0.00000000000000	0.00000000000000	-29.13926800000000	0.00000000000000	
4.28998600000000	-2.65302300000000	111.27477200000000	-18.15971500000000	0.42210100000000	0.00000000000000	0.06623700000000	-51.80601300000000	730.87912500000004	-45.36691500000000	0.20347300000000	0.00000000000000	-0.11631200000000	0.00000000000000	-17.60903600000000	0.00000000000000	0.00000000000000	-29.00059600000000	0.00000000000000	
4.29165100000000	-1.86557500000000	117.65268800000000	-17.91736800000000	0.42284800000000	0.00000000000000	0.06693500000000	-52.63318200000000	727.32631500000002	-44.69232000000000	0.20231000000000	0.00000000000000	-0.11610600000000	0.00000000000000	-17.49966600000000	0.00000000000000	0.00000000000000	-28.86014300000000	0.00000000000000	
4.29331300000000	-1.01096500000000	124.08438500000000	-17.59319900000000	0.42366600000000	0.00000000000000	0.06759000000000	-53.46936700000000	723.67381399999999	-43.99878800000000	0.20113800000000	0.00000000000000	-0.11589700000000	0.00000000000000	-17.32300400000000	0.00000000000000	0.00000000000000	-28.71764800000000	0.00000000000000	
4.29498900000000	-0.09933000000000	130.61743200000001	-17.20732600000000	0.42454700000000	0.00000000000000	0.06820800000000	-54.31270100000000	719.91880000000003	-43.28647200000000	0.19996000000000	0.00000000000000	-0.11568300000000	0.00000000000000	-17.09736000000000	0.00000000000000	0.00000000000000	-28.57284500000000	0.00000000000000	
4.29665400000000	0.86100700000000	137.29231700000000	-16.77631700000000	0.42548700000000	0.00000000000000	0.06879100000000	-55.16123700000000	716.05841299999997	-42.55557500000000	0.19877600000000	0.00000000000000	-0.11546500000000	0.00000000000000	-16.83778400000000	0.00000000000000	0.00000000000000	-28.42546400000000	0.00000000000000	
4.29831800000000	1.86369200000000	144.14060200000000	-16.31274800000000	0.42647900000000	0.00000000000000	0.06934100000000	-56.01295800000000	712.08975899999996	-41.80635200000000	0.19758900000000	0.00000000000000	-0.11524300000000	0.00000000000000	-16.55566000000000	0.00000000000000	0.00000000000000	-28.27522900000000	0.00000000000000	
4.29998600000000	2.90431400000000	151.18403799999999	-15.82513000000000	0.42751800000000	0.00000000000000	0.06986100000000	-56.86577400000000	708.00992900000006	-41.03911500000000	0.19640000000000	0.00000000000000	-0.11501700000000	0.00000000000000	-16.25862400000000	0.00000000000000	0.00000000000000	-28.12186500000000	0.00000000000000	
4.30165100000000	3.98024400000000	158.43454000000000	-15.31815100000000	0.42860100000000	0.00000000000000	0.07035300000000	-57.71753200000000	703.81601100000000	-40.25422800000000	0.19521100000000	0.00000000000000	-0.11478700000000	0.00000000000000	-15.95077900000000	0.00000000000000	0.00000000000000	-27.96509000000000	0.00000000000000	
4.30331600000000	5.09035300000000	165.89484899999999	-14.79316100000000	0.42972200000000	0.00000000000000	0.07082000000000	-58.56602000000000	699.50509599999998	-39.45211300000000	0.19402300000000	0.00000000000000	-0.11455200000000	0.00000000000000	-15.63312400000000	0.00000000000000	0.00000000000000	-27.80462300000000	0.00000000000000	
4.30498200000000	6.23467500000000	173.55971700000001	-14.24880800000000	0.43087800000000	0.00000000000000	0.07126200000000	-59.40897200000000	695.07430299999999	-38.63324800000000	0.19283800000000	0.00000000000000	-0.11431300000000	0.00000000000000	-15.30413300000000	0.00000000000000	0.00000000000000	-27.64018300000000	0.00000000000000	
4.30664800000000	7.41403700000000	181.41743099999999	-13.68176300000000	0.43206500000000	0.00000000000000	0.07168100000000	-60.24407300000000	690.52078400000005	-37.79816600000000	0.19165800000000	0.00000000000000	-0.11407000000000	0.00000000000000	-14.96041100000000	0.00000000000000	0.00000000000000	-27.47148600000000	0.00000000000000	
4.30832100000000	8.62968900000000	189.45149200000000	-13.08744900000000	0.43327900000000	0.00000000000000	0.07207900000000	-61.06896900000000	685.84174499999995	-36.94746000000000	0.19048400000000	0.00000000000000	-0.11382200000000	0.00000000000000	-14.59736400000000	0.00000000000000	0.00000000000000	-27.29825000000000	0.00000000000000	
4.30998500000000	9.88297600000000	197.64230100000000	-12.46073400000000	0.43451900000000	0.00000000000000	0.07245700000000	-61.88126700000000	681.03446099999996	-36.08177700000000	0.18931900000000	0.00000000000000	-0.11357000000000	0.00000000000000	-14.20984000000000	0.00000000000000	0.00000000000000	-27.12019700000000	0.00000000000000	
4.31164800000000	11.17504800000000	205.96872800000000	-11.79653600000000	0.43577900000000	0.00000000000000	0.07281500000000	-62.67854700000000	676.09629299999995	-35.20182000000000	0.18816400000000	0.00000000000000	-0.11331300000000	0.00000000000000	-13.79268200000000	0.00000000000000	0.00000000000000	-26.93704700000000	0.00000000000000	
4.31332000000000	12.50663900000000	214.40946800000000	-11.09030600000000	0.43705900000000	0.00000000000000	0.07315600000000	-63.45836500000000	671.02470400000004	-34.30834600000000	0.18702100000000	0.00000000000000	-0.11305100000000	0.00000000000000	-13.34119100000000	0.00000000000000	0.00000000000000	-26.74852400000000	0.00000000000000	
4.31498900000000	13.87790900000000	222.94412800000001	-10.33839300000000	0.43835400000000	0.00000000000000	0.07347900000000	-64.21826100000000	665.81727999999998	-33.40216800000000	0.18589200000000	0.00000000000000	-0.11278500000000	0.00000000000000	-12.85146400000000	0.00000000000000	0.00000000000000	-26.55435600000000	0.00000000000000	
